<?xml version="1.0" encoding="UTF-8"?>
<svg version="1.1" xmlns="http://www.w3.org/2000/svg" width="1024" height="1024">
<path d="M0 0 C5.20409595 -0.09006667 10.39897652 -0.06253315 15.60253906 0.04589844 C16.69091064 0.06475098 16.69091064 0.06475098 17.80126953 0.08398438 C72.40325259 1.25308954 126.81895754 15.86052072 175.60253906 40.04589844 C176.60784668 40.54234863 177.6131543 41.03879883 178.64892578 41.55029297 C192.15435674 48.27345369 205.04336874 55.69178246 217.60253906 64.04589844 C218.66359863 64.74779297 218.66359863 64.74779297 219.74609375 65.46386719 C242.69945536 80.71626383 263.40884035 98.81042406 282.91503906 118.23339844 C283.66817383 118.98186035 284.42130859 119.73032227 285.19726562 120.50146484 C322.63797663 158.04990698 350.23110242 205.61134182 368.60253906 255.04589844 C369.16739014 256.53573242 369.16739014 256.53573242 369.74365234 258.05566406 C370.11087402 259.03728516 370.4780957 260.01890625 370.85644531 261.03027344 C371.1910376 261.9194043 371.52562988 262.80853516 371.87036133 263.72460938 C372.60253906 266.04589844 372.60253906 266.04589844 372.60253906 269.04589844 C373.26253906 269.37589844 373.92253906 269.70589844 374.60253906 270.04589844 C375.27881169 272.18537911 375.83811331 274.36184524 376.35253906 276.54589844 C376.7038027 278.03294823 377.05538559 279.51992264 377.40722656 281.00683594 C377.59768555 281.82120117 377.78814453 282.63556641 377.984375 283.47460938 C378.61669955 286.10479979 379.29608289 288.71915315 379.98535156 291.33496094 C397.75091223 359.96445274 397.12687393 432.67467725 378.60253906 501.04589844 C378.32796875 502.06071289 378.05339844 503.07552734 377.77050781 504.12109375 C372.05067659 524.98280696 364.52170783 544.62170919 355.74951172 564.37451172 C354.22552492 567.92399311 352.85184613 571.5257408 351.50366211 575.14526367 C350.60253906 577.04589844 350.60253906 577.04589844 348.60253906 578.04589844 C347.91369702 579.7035229 347.25347163 581.37302396 346.60253906 583.04589844 C337.36664091 601.55335458 325.70142862 618.87127735 313.04345703 635.1875 C311.6175668 637.02651668 310.20513839 638.87527817 308.79394531 640.72558594 C303.59435676 647.49441142 298.15015164 653.91086296 292.30566406 660.13183594 C290.24411111 662.35426152 288.24941268 664.5995251 286.27050781 666.89355469 C282.57078754 671.14074918 278.65826676 675.13827524 274.66503906 679.10839844 C274.00052734 679.77677734 273.33601562 680.44515625 272.65136719 681.13378906 C268.13310752 685.64328392 263.4432178 689.8868828 258.60253906 694.04589844 C257.50792675 695.00715697 256.41413116 695.96934659 255.32128906 696.93261719 C188.33977221 755.43324352 100.04867258 789.23845624 11.1015625 789.23120117 C8.13559307 789.23337422 5.17000498 789.25155871 2.20410156 789.27050781 C-14.83894636 789.32031856 -31.69214034 788.14801303 -48.52246094 785.41308594 C-51.51131157 785.03135773 -54.38767456 784.98319455 -57.39746094 785.04589844 C-57.39746094 784.38589844 -57.39746094 783.72589844 -57.39746094 783.04589844 C-58.32969482 782.99743774 -58.32969482 782.99743774 -59.28076172 782.94799805 C-67.50545367 782.37482535 -75.29874543 780.63710712 -83.27246094 778.60839844 C-83.96388184 778.43427429 -84.65530273 778.26015015 -85.36767578 778.08074951 C-127.84761358 767.31383868 -170.54635847 749.55627475 -206.39746094 724.04589844 C-207.73893761 723.12391078 -209.08147416 722.2034642 -210.42480469 721.28417969 C-218.44265693 715.75991356 -226.09134281 710.00805969 -233.43261719 703.61230469 C-236.14182572 701.26717951 -238.90552938 699.02527568 -241.70996094 696.79589844 C-255.22009142 685.79056587 -268.36447174 673.31605084 -279.66699219 660.05371094 C-281.6317359 657.77407602 -283.67094176 655.571784 -285.70996094 653.35839844 C-290.96365481 647.51997641 -295.71123991 641.33943115 -300.39746094 635.04589844 C-300.89793945 634.38058105 -301.39841797 633.71526367 -301.9140625 633.02978516 C-309.08104934 623.47601064 -315.61572513 613.76962774 -321.43994141 603.33081055 C-321.90158691 602.52393799 -322.36323242 601.71706543 -322.83886719 600.88574219 C-323.2379126 600.16765381 -323.63695801 599.44956543 -324.0480957 598.7097168 C-325.69944859 596.67353625 -326.84680992 596.40631284 -329.39746094 596.04589844 C-329.34227295 595.16949707 -329.28708496 594.2930957 -329.23022461 593.39013672 C-329.41708334 589.65350773 -330.25644277 587.77947601 -332.07324219 584.53808594 C-332.64856689 583.48371338 -333.2238916 582.42934082 -333.81665039 581.34301758 C-334.44144287 580.21371826 -335.06623535 579.08441895 -335.70996094 577.92089844 C-357.06080408 538.25303994 -370.02594932 492.4728606 -375.96777344 447.90917969 C-376.23696262 445.10895955 -376.23696262 445.10895955 -377.39746094 443.04589844 C-377.61960439 440.20739873 -377.78031984 437.38945163 -377.89746094 434.54589844 C-377.93589111 433.629375 -377.97432129 432.71285156 -378.01391602 431.76855469 C-378.09835042 429.68662912 -378.17994332 427.6045871 -378.25927734 425.52246094 C-378.35472585 423.121071 -378.45913345 420.72002635 -378.57080078 418.31933594 C-379.96695566 388.19532929 -379.47190843 357.84313163 -374.39746094 328.04589844 C-374.10379639 326.31243164 -374.10379639 326.31243164 -373.80419922 324.54394531 C-367.79961103 289.92661867 -357.74870191 257.11703991 -343.39746094 225.04589844 C-343.05134766 224.26182617 -342.70523438 223.47775391 -342.34863281 222.66992188 C-333.15988631 201.96472932 -321.3207251 182.61597024 -308.39746094 164.04589844 C-307.71554687 163.05976563 -307.03363281 162.07363281 -306.33105469 161.05761719 C-298.00960755 149.33115201 -288.74639987 138.27105928 -278.93652344 127.76855469 C-276.58816975 125.25039696 -274.30110902 122.68948527 -272.02246094 120.10839844 C-263.930399 111.12042964 -255.49108347 102.66795655 -246.00292969 95.15136719 C-243.41343563 93.05880752 -240.96886846 90.86571166 -238.52246094 88.60839844 C-227.961499 79.02714838 -216.24927372 70.93179803 -204.39746094 63.04589844 C-203.69443848 62.5742627 -202.99141602 62.10262695 -202.26708984 61.61669922 C-175.83940106 43.99625104 -130.46288607 15.04589844 -97.39746094 15.04589844 C-97.06746094 14.38589844 -96.73746094 13.72589844 -96.39746094 13.04589844 C-94.359375 12.51416016 -94.359375 12.51416016 -91.66308594 12.10058594 C-87.43333226 11.40198206 -83.25465664 10.60835713 -79.06933594 9.67871094 C-52.90315244 3.94456466 -26.81642325 0.51338977 0 0 Z M-328.39746094 592.04589844 C-327.39746094 594.04589844 -327.39746094 594.04589844 -327.39746094 594.04589844 Z " fill="#F70525" transform="translate(505.3974609375,114.9541015625)"/>
<path d="M0 0 C5.40254294 0.56963549 10.47723148 1.49422564 15.6875 3.0625 C16.40953613 3.27874023 17.13157227 3.49498047 17.87548828 3.71777344 C61.0400449 17.00340432 98.59820618 40.99139243 132 71 C133.35593262 72.21804321 133.35593262 72.21804321 134.73925781 73.46069336 C145.18284648 82.93209571 155.03616833 92.98858045 164.93066406 103.02661133 C173.29146506 111.50032403 181.54720946 119.73562675 191 127 C192.07437623 127.87814244 193.14646762 128.75909866 194.21484375 129.64453125 C231.10845038 159.02179335 276.66942464 171.9804668 323.44433594 167.68359375 C329.72680453 166.85425153 335.85650472 165.53650045 342 164 C342.79245117 163.81276367 343.58490234 163.62552734 344.40136719 163.43261719 C355.49280276 160.78875502 365.75813103 156.98645491 376 152 C376.74362793 151.64309082 377.48725586 151.28618164 378.25341797 150.91845703 C410.30817028 135.37005993 435.1879405 110.10136945 459.89501953 85.0090332 C467.94527846 76.84214378 475.95511724 69.06833579 485 62 C486.10272695 61.06628091 487.19905785 60.12488514 488.28515625 59.171875 C516.9954182 34.13620354 550.89396776 15.29352213 587.25 4.0625 C588.67844238 3.62031128 588.67844238 3.62031128 590.13574219 3.16918945 C595.43941512 1.58758192 600.4874697 0.51113837 606 0 C638 48.41607565 638 48.41607565 638 64 C636.88431641 64.12955078 636.88431641 64.12955078 635.74609375 64.26171875 C573.62866514 72.2555791 520.40215262 107.40855772 480.66015625 155.12109375 C478.23477905 157.86605006 475.59010036 160.40989964 473 163 C534.71 163.33 596.42 163.66 660 164 C662.30546931 181.29101983 662.30546931 181.29101983 662.265625 188.03125 C662.26849518 189.17793152 662.26849518 189.17793152 662.27142334 190.34777832 C662.27276245 191.93709652 662.26922888 193.52642655 662.26074219 195.11572266 C662.2500091 197.49798006 662.26071659 199.87948377 662.2734375 202.26171875 C662.2721155 203.83073077 662.26955227 205.39974234 662.265625 206.96875 C662.27169769 207.9960321 662.27169769 207.9960321 662.27789307 209.04406738 C662.20932173 216.56237786 661.01879395 223.35904538 660 231 C596.97 231.33 533.94 231.66 469 232 C472.63 235.63 476.26 239.26 480 243 C483.453125 246.94140625 483.453125 246.94140625 485.09570312 248.85986328 C488.94964079 253.19109631 493.07903383 257.26497459 497.17773438 261.36303711 C498.73860327 262.92608734 500.29127888 264.49697365 501.84375 266.06835938 C508.2389304 272.49879917 514.89724415 278.34598789 522 284 C523.79406393 285.55974687 525.58627067 287.12163824 527.375 288.6875 C559.3482819 315.22902744 596.120977 329.95168692 637 335 C629.84092888 357.54366809 618.34430952 379.93544284 603 398 C556.63367714 391.82255729 514.4668769 365.38277807 480 335 C479.30447021 334.392771 478.60894043 333.78554199 477.89233398 333.15991211 C470.88883477 326.96393074 464.26514445 320.41824584 457.66723633 313.79760742 C455.80857892 311.93356756 453.94460386 310.07496488 452.08007812 308.21679688 C441.2363194 297.37782923 441.2363194 297.37782923 436.42407227 291.59570312 C434.19037156 289.09279419 431.63573568 286.99428608 429.078125 284.83203125 C426.88921027 282.90233011 424.89460231 280.85562241 422.875 278.75 C417.06700197 272.8822284 410.59227268 267.94464412 404 263 C403.41524902 262.55978516 402.83049805 262.11957031 402.22802734 261.66601562 C366.85226977 235.21574257 323.62074537 222.32330925 279.5390625 228.24609375 C243.77233088 233.76718497 210.99828911 252.32164102 185.1730957 277.20458984 C182.78056506 279.48897703 181.18314989 280.93895004 178 282 C177.32579738 283.32953866 176.66073137 284.66371549 176 286 C174.46360357 287.68833228 172.86819052 289.32363358 171.23828125 290.921875 C170.76939987 291.38555481 170.30051849 291.84923462 169.81742859 292.32696533 C168.32048402 293.80617025 166.81704251 295.27852701 165.3125 296.75 C163.34678757 298.67879312 161.38444234 300.61092159 159.42578125 302.546875 C158.95007187 303.01672318 158.47436249 303.48657135 157.98423767 303.97065735 C154.67082433 307.26833087 151.58043435 310.7007921 148.54516602 314.25244141 C146.14277541 316.9695076 143.50792026 319.39113311 140.8125 321.8125 C139.67177548 322.8488488 138.53115271 323.8853096 137.390625 324.921875 C136.82279297 325.43556641 136.25496094 325.94925781 135.66992188 326.47851562 C134.09410663 327.9142584 132.5361819 329.3665156 130.984375 330.828125 C123.67093512 337.69377836 115.98853223 343.93810111 108 350 C107.40848145 350.45375 106.81696289 350.9075 106.20751953 351.375 C75.41782607 374.92940825 41.98930629 390.4946585 4 398 C-0.93846147 392.02210702 -5.5181566 386.03096877 -9.5 379.375 C-10.19754395 378.21895264 -10.19754395 378.21895264 -10.90917969 377.03955078 C-17.02010173 366.77547285 -22.14346965 356.09117797 -27 345.1875 C-27.30325195 344.51122559 -27.60650391 343.83495117 -27.91894531 343.13818359 C-29.17777282 340.24850141 -30 338.18790439 -30 335 C-29.37246826 334.90501221 -28.74493652 334.81002441 -28.09838867 334.7121582 C13.45233376 328.33516874 49.93538516 313.87799078 82 286 C82.95261719 285.22914063 83.90523437 284.45828125 84.88671875 283.6640625 C93.52027953 276.61672023 101.37798705 268.81035037 109.25 260.9375 C110.09839447 260.09046509 110.09839447 260.09046509 110.96392822 259.22631836 C112.58892533 257.60102625 114.20951416 255.97149385 115.828125 254.33984375 C116.56628952 253.59987404 116.56628952 253.59987404 117.31936646 252.84495544 C119.48743598 250.64696218 121.27919219 248.58121171 123 246 C123.66 246 124.32 246 125 246 C125.23589844 245.43539062 125.47179687 244.87078125 125.71484375 244.2890625 C127.29234942 241.47928037 129.24051286 239.60380949 131.5625 237.375 C134.69042054 234.48929319 134.69042054 234.48929319 137 231 C73.97 231 10.94 231 -54 231 C-57.36308941 220.91073176 -56.12417925 208.60804459 -56.17623901 198.04476929 C-56.18362686 196.66228113 -56.19419982 195.27980555 -56.20828247 193.89736938 C-56.22670377 191.89909873 -56.22863259 189.90069847 -56.23046875 187.90234375 C-56.23457764 186.74210693 -56.23868652 185.58187012 -56.24291992 184.38647461 C-55.8832141 177.89116354 -54.85975983 171.44819876 -54 165 C8.04 164.67 70.08 164.34 134 164 C131.03 161.03 128.06 158.06 125 155 C123.33599725 153.08669363 121.67225471 151.17312641 120.01904297 149.25048828 C115.93474777 144.69800544 111.56213356 140.41518222 107.23022461 136.09985352 C105.56573723 134.4407268 103.90666553 132.77631949 102.24804688 131.11132812 C96.6733614 125.53252749 91.054896 120.06204349 85 115 C84.42467529 114.51265381 83.84935059 114.02530762 83.2565918 113.52319336 C50.60861214 86.11667065 10.67741701 67.81048366 -32 64 C-30.02193823 57.68487555 -27.6736446 51.64849842 -24.9375 45.625 C-24.5468335 44.76358398 -24.15616699 43.90216797 -23.75366211 43.01464844 C-16.87332884 28.03329962 -8.96433158 13.82795828 0 0 Z " fill="#000000" transform="translate(209,314)"/>
<path d="M0 0 C0.66 0.66 1.32 1.32 2 2 C1.319375 2.66 0.63875 3.32 -0.0625 4 C-2.27164814 6.19673719 -4.29756546 8.49959552 -6.3125 10.875 C-10.97863283 16.26448529 -16.274959 20.7728633 -22 25 C-22 22 -22 22 -19.98046875 19.63989258 C-19.05878906 18.73392334 -18.13710938 17.8279541 -17.1875 16.89453125 C-16.69918701 16.4104631 -16.21087402 15.92639496 -15.70776367 15.42765808 C-14.14540174 13.8820986 -12.57293673 12.34728893 -11 10.8125 C-9.93942238 9.76696718 -8.87951771 8.72075127 -7.8203125 7.67382812 C-5.22130566 5.10791098 -2.6131361 2.55153533 0 0 Z " fill="#EB0429" transform="translate(717,440)"/>
<path d="M0 0 C0.66 0.33 1.32 0.66 2 1 C-0.12121657 3.33333823 -2.01594365 4.9148886 -5 6 C-7.12890625 5.546875 -7.12890625 5.546875 -9 5 C-7.54735962 4.1361871 -6.0876837 3.28419546 -4.625 2.4375 C-3.40683594 1.72400391 -3.40683594 1.72400391 -2.1640625 0.99609375 C-1.44992187 0.66738281 -0.73578125 0.33867187 0 0 Z " fill="#EF0F28" transform="translate(331,160)"/>
<path d="M0 0 C0.33 0.99 0.66 1.98 1 3 C-0.09445838 3.86657116 -1.20097781 4.71792724 -2.3125 5.5625 C-2.92738281 6.03816406 -3.54226563 6.51382812 -4.17578125 7.00390625 C-4.77777344 7.33261719 -5.37976563 7.66132813 -6 8 C-6.99 7.67 -7.98 7.34 -9 7 C-6.03 4.69 -3.06 2.38 0 0 Z " fill="#EA052A" transform="translate(743,418)"/>
<path d="M0 0 C0.33 0.66 0.66 1.32 1 2 C-3.82142857 8.29464286 -3.82142857 8.29464286 -8 9 C-7.04270084 7.87411986 -6.08412105 6.7493285 -5.125 5.625 C-4.59132812 4.99851563 -4.05765625 4.37203125 -3.5078125 3.7265625 C-2.38567993 2.44163349 -1.20628025 1.20628025 0 0 Z " fill="#EC112A" transform="translate(247,221)"/>
<path d="M0 0 C0.66 0.33 1.32 0.66 2 1 C-0.23407889 4.35111834 -1.26215824 5.81553956 -5.25 6.8125 C-6.61125 6.9053125 -6.61125 6.9053125 -8 7 C-5.4837822 4.39391727 -2.94865641 2.10618315 0 0 Z " fill="#EE1128" transform="translate(293,183)"/>
<path d="M0 0 C1.32 0.33 2.64 0.66 4 1 C1.69 2.65 -0.62 4.3 -3 6 C-3.66 5.67 -4.32 5.34 -5 5 C-2.75 2.4375 -2.75 2.4375 0 0 Z " fill="#EC0E26" transform="translate(718,840)"/>
<path d="M0 0 C0.66 0.33 1.32 0.66 2 1 C0.35 2.32 -1.3 3.64 -3 5 C-4.32 4.34 -5.64 3.68 -7 3 C-4.69631264 1.93347808 -2.35981813 0.93578995 0 0 Z " fill="#EE1029" transform="translate(365,144)"/>
<path d="M0 0 C0 4.0333534 -1.60879918 5.83517538 -4 9 C-4.66 9 -5.32 9 -6 9 C-4.47291037 5.56404834 -2.40072955 2.88087546 0 0 Z " fill="#EB1228" transform="translate(210,262)"/>
<path d="M0 0 C0.99 0 1.98 0 3 0 C2.67 0.99 2.34 1.98 2 3 C1.34 2.01 0.68 1.02 0 0 Z " fill="#DB182D" transform="translate(210,256)"/>
<path d="M0 0 C0.99 0 1.98 0 3 0 C2.67 0.66 2.34 1.32 2 2 C1.34 1.34 0.68 0.68 0 0 Z " fill="#E5142B" transform="translate(419,894)"/>
<path d="M0 0 C1.485 0.99 1.485 0.99 3 2 C2.01 2 1.02 2 0 2 C0 1.34 0 0.68 0 0 Z " fill="#E3152B" transform="translate(370,877)"/>
<path d="M0 0 C1 4 1 4 1 4 Z " fill="#E1172D" transform="translate(128,561)"/>
<path d="M0 0 C4 1 4 1 4 1 Z " fill="#E3162E" transform="translate(484,114)"/>
<path d="M0 0 C3 1 3 1 3 1 Z " fill="#E2142C" transform="translate(460,902)"/>
<path d="M0 0 C3 1 3 1 3 1 Z " fill="#E4142B" transform="translate(416,893)"/>
<path d="" fill="#E0142C" transform="translate(0,0)"/>
<path d="" fill="#DC1A2E" transform="translate(0,0)"/>
<path d="M0 0 C0.99 0.495 0.99 0.495 2 1 C1.01 1.495 1.01 1.495 0 2 C0 1.34 0 0.68 0 0 Z " fill="#DC172D" transform="translate(320,163)"/>
<path d="M0 0 C0.66 0.66 1.32 1.32 2 2 C1.34 2 0.68 2 0 2 C0 1.34 0 0.68 0 0 Z " fill="#DE192D" transform="translate(401,128)"/>
<path d="M0 0 C3 1 3 1 3 1 Z " fill="#DB1A2D" transform="translate(614,128)"/>
<path d="M0 0 C2 1 2 1 2 1 Z " fill="#E4142C" transform="translate(563,902)"/>
<path d="M0 0 C2 1 2 1 2 1 Z " fill="#DE192E" transform="translate(598,895)"/>
<path d="M0 0 C2 1 2 1 2 1 Z " fill="#E0192D" transform="translate(628,887)"/>
<path d="M0 0 C2 1 2 1 2 1 Z " fill="#E4152B" transform="translate(384,883)"/>
<path d="" fill="#DD1A2D" transform="translate(0,0)"/>
<path d="M0 0 C2 1 2 1 2 1 Z " fill="#DD142B" transform="translate(201,748)"/>
<path d="" fill="#DC182A" transform="translate(0,0)"/>
<path d="" fill="#D61429" transform="translate(0,0)"/>
<path d="" fill="#E1142C" transform="translate(0,0)"/>
<path d="" fill="#DE162C" transform="translate(0,0)"/>
<path d="" fill="#DC152B" transform="translate(0,0)"/>
<path d="" fill="#DF172E" transform="translate(0,0)"/>
<path d="" fill="#D8152C" transform="translate(0,0)"/>
<path d="M0 0 C2 1 2 1 2 1 Z " fill="#D71B2D" transform="translate(360,144)"/>
<path d="M0 0 C2 1 2 1 2 1 Z " fill="#DE182E" transform="translate(622,130)"/>
<path d="" fill="#DF172F" transform="translate(0,0)"/>
<path d="M0 0 C2 1 2 1 2 1 Z " fill="#E1162D" transform="translate(592,122)"/>
<path d="M0 0 C2 1 2 1 2 1 Z " fill="#DE1A2D" transform="translate(440,120)"/>
<path d="" fill="#E2132A" transform="translate(0,0)"/>
<path d="" fill="#E3162D" transform="translate(0,0)"/>
<path d="" fill="#DE162C" transform="translate(0,0)"/>
<path d="" fill="#E4122B" transform="translate(0,0)"/>
<path d="" fill="#E3162A" transform="translate(0,0)"/>
<path d="" fill="#E3132C" transform="translate(0,0)"/>
<path d="" fill="#E4162C" transform="translate(0,0)"/>
<path d="" fill="#E5132C" transform="translate(0,0)"/>
<path d="" fill="#E1142D" transform="translate(0,0)"/>
<path d="" fill="#E4142B" transform="translate(0,0)"/>
<path d="" fill="#E1172D" transform="translate(0,0)"/>
<path d="" fill="#E7132B" transform="translate(0,0)"/>
<path d="" fill="#E2152D" transform="translate(0,0)"/>
<path d="" fill="#E41429" transform="translate(0,0)"/>
<path d="" fill="#E2152C" transform="translate(0,0)"/>
<path d="" fill="#DE192D" transform="translate(0,0)"/>
<path d="" fill="#DF142B" transform="translate(0,0)"/>
<path d="" fill="#E4162C" transform="translate(0,0)"/>
<path d="" fill="#E1162D" transform="translate(0,0)"/>
<path d="" fill="#E0142A" transform="translate(0,0)"/>
<path d="" fill="#E1152A" transform="translate(0,0)"/>
<path d="" fill="#E7142A" transform="translate(0,0)"/>
<path d="" fill="#E4152B" transform="translate(0,0)"/>
<path d="" fill="#DF182B" transform="translate(0,0)"/>
<path d="" fill="#E0162B" transform="translate(0,0)"/>
<path d="" fill="#DE1128" transform="translate(0,0)"/>
<path d="" fill="#DF142C" transform="translate(0,0)"/>
<path d="" fill="#D71B2C" transform="translate(0,0)"/>
<path d="" fill="#D9182B" transform="translate(0,0)"/>
<path d="" fill="#DA1A2C" transform="translate(0,0)"/>
<path d="" fill="#D51A2B" transform="translate(0,0)"/>
<path d="" fill="#D71929" transform="translate(0,0)"/>
<path d="" fill="#DE132B" transform="translate(0,0)"/>
<path d="" fill="#DD142C" transform="translate(0,0)"/>
<path d="" fill="#DD162A" transform="translate(0,0)"/>
<path d="" fill="#DF142C" transform="translate(0,0)"/>
<path d="" fill="#DE162D" transform="translate(0,0)"/>
<path d="" fill="#DD172C" transform="translate(0,0)"/>
<path d="" fill="#E0132C" transform="translate(0,0)"/>
<path d="" fill="#E1122A" transform="translate(0,0)"/>
<path d="" fill="#DC182B" transform="translate(0,0)"/>
<path d="" fill="#DD162A" transform="translate(0,0)"/>
<path d="" fill="#DB142B" transform="translate(0,0)"/>
<path d="" fill="#DD1528" transform="translate(0,0)"/>
<path d="" fill="#D71428" transform="translate(0,0)"/>
<path d="" fill="#D7152D" transform="translate(0,0)"/>
<path d="" fill="#DE152B" transform="translate(0,0)"/>
<path d="" fill="#DF1429" transform="translate(0,0)"/>
<path d="" fill="#D5172A" transform="translate(0,0)"/>
<path d="" fill="#D8172A" transform="translate(0,0)"/>
<path d="" fill="#DF132A" transform="translate(0,0)"/>
<path d="" fill="#DE152D" transform="translate(0,0)"/>
<path d="" fill="#DF1329" transform="translate(0,0)"/>
<path d="" fill="#E0142D" transform="translate(0,0)"/>
<path d="" fill="#E1152C" transform="translate(0,0)"/>
<path d="" fill="#DC172E" transform="translate(0,0)"/>
<path d="" fill="#DF152C" transform="translate(0,0)"/>
<path d="" fill="#D8152C" transform="translate(0,0)"/>
<path d="" fill="#E1142A" transform="translate(0,0)"/>
<path d="" fill="#DA152B" transform="translate(0,0)"/>
<path d="" fill="#DF172D" transform="translate(0,0)"/>
<path d="" fill="#E2152A" transform="translate(0,0)"/>
<path d="" fill="#DC132A" transform="translate(0,0)"/>
<path d="" fill="#E4162C" transform="translate(0,0)"/>
<path d="" fill="#D9182C" transform="translate(0,0)"/>
<path d="" fill="#E2182C" transform="translate(0,0)"/>
<path d="" fill="#E3182F" transform="translate(0,0)"/>
<path d="" fill="#DD132D" transform="translate(0,0)"/>
<path d="" fill="#E3132C" transform="translate(0,0)"/>
<path d="" fill="#E0162D" transform="translate(0,0)"/>
<path d="" fill="#E2162D" transform="translate(0,0)"/>
<path d="" fill="#E4172D" transform="translate(0,0)"/>
<path d="" fill="#E2112A" transform="translate(0,0)"/>
<path d="" fill="#E6162D" transform="translate(0,0)"/>
<path d="" fill="#E11329" transform="translate(0,0)"/>
<path d="" fill="#E1152B" transform="translate(0,0)"/>
<path d="" fill="#DB162B" transform="translate(0,0)"/>
<path d="" fill="#DB1A2E" transform="translate(0,0)"/>
<path d="" fill="#DC192D" transform="translate(0,0)"/>
<path d="" fill="#E0152C" transform="translate(0,0)"/>
<path d="" fill="#E3162E" transform="translate(0,0)"/>
<path d="" fill="#E2182D" transform="translate(0,0)"/>
<path d="" fill="#DE182E" transform="translate(0,0)"/>
<path d="" fill="#DC152A" transform="translate(0,0)"/>
<path d="" fill="#E2172C" transform="translate(0,0)"/>
<path d="" fill="#DF152C" transform="translate(0,0)"/>
<path d="" fill="#DA132B" transform="translate(0,0)"/>
<path d="" fill="#DF172D" transform="translate(0,0)"/>
<path d="" fill="#DA162D" transform="translate(0,0)"/>
<path d="" fill="#DA162B" transform="translate(0,0)"/>
<path d="" fill="#DC1730" transform="translate(0,0)"/>
<path d="" fill="#DB162C" transform="translate(0,0)"/>
<path d="" fill="#D8142B" transform="translate(0,0)"/>
<path d="" fill="#D71A31" transform="translate(0,0)"/>
<path d="" fill="#DB1A30" transform="translate(0,0)"/>
<path d="" fill="#D8152B" transform="translate(0,0)"/>
<path d="" fill="#DE162B" transform="translate(0,0)"/>
<path d="" fill="#E0162D" transform="translate(0,0)"/>
<path d="" fill="#D9132C" transform="translate(0,0)"/>
<path d="" fill="#DA132B" transform="translate(0,0)"/>
<path d="" fill="#D91A2E" transform="translate(0,0)"/>
<path d="" fill="#D9132B" transform="translate(0,0)"/>
<path d="" fill="#D7162B" transform="translate(0,0)"/>
<path d="" fill="#DE172E" transform="translate(0,0)"/>
<path d="" fill="#D81C30" transform="translate(0,0)"/>
<path d="" fill="#D8152B" transform="translate(0,0)"/>
<path d="" fill="#DB1529" transform="translate(0,0)"/>
<path d="" fill="#DA1B2E" transform="translate(0,0)"/>
<path d="" fill="#D8152D" transform="translate(0,0)"/>
<path d="" fill="#DC182E" transform="translate(0,0)"/>
<path d="" fill="#DB172B" transform="translate(0,0)"/>
<path d="" fill="#DA172D" transform="translate(0,0)"/>
<path d="" fill="#DB162D" transform="translate(0,0)"/>
<path d="" fill="#DA172C" transform="translate(0,0)"/>
<path d="" fill="#DC142E" transform="translate(0,0)"/>
<path d="" fill="#DA1A2F" transform="translate(0,0)"/>
<path d="" fill="#DC192D" transform="translate(0,0)"/>
<path d="" fill="#DE182D" transform="translate(0,0)"/>
<path d="" fill="#DE172C" transform="translate(0,0)"/>
<path d="" fill="#DB162C" transform="translate(0,0)"/>
<path d="" fill="#D9162A" transform="translate(0,0)"/>
<path d="" fill="#DD162C" transform="translate(0,0)"/>
<path d="" fill="#DE152D" transform="translate(0,0)"/>
<path d="" fill="#DB162A" transform="translate(0,0)"/>
<path d="" fill="#DC162B" transform="translate(0,0)"/>
<path d="" fill="#DB172C" transform="translate(0,0)"/>
<path d="" fill="#DB182C" transform="translate(0,0)"/>
<path d="" fill="#DE162E" transform="translate(0,0)"/>
<path d="" fill="#E0172C" transform="translate(0,0)"/>
<path d="" fill="#DF162D" transform="translate(0,0)"/>
<path d="" fill="#DB192C" transform="translate(0,0)"/>
<path d="" fill="#DC152B" transform="translate(0,0)"/>
<path d="" fill="#DD182D" transform="translate(0,0)"/>
<path d="" fill="#DB162C" transform="translate(0,0)"/>
<path d="" fill="#DA1C30" transform="translate(0,0)"/>
<path d="" fill="#DA1D2F" transform="translate(0,0)"/>
<path d="" fill="#DE172B" transform="translate(0,0)"/>
<path d="" fill="#E0172D" transform="translate(0,0)"/>
<path d="" fill="#DE182E" transform="translate(0,0)"/>
<path d="" fill="#DE142A" transform="translate(0,0)"/>
<path d="" fill="#DE182E" transform="translate(0,0)"/>
<path d="" fill="#DD1D2E" transform="translate(0,0)"/>
<path d="" fill="#DF162A" transform="translate(0,0)"/>
<path d="" fill="#DE152B" transform="translate(0,0)"/>
<path d="" fill="#E1162E" transform="translate(0,0)"/>
<path d="" fill="#DB1A2D" transform="translate(0,0)"/>
<path d="" fill="#DE162C" transform="translate(0,0)"/>
<path d="" fill="#D9182B" transform="translate(0,0)"/>
<path d="" fill="#E0172C" transform="translate(0,0)"/>
<path d="" fill="#DB1C2D" transform="translate(0,0)"/>
<path d="" fill="#DF192E" transform="translate(0,0)"/>
<path d="" fill="#DD182D" transform="translate(0,0)"/>
<path d="" fill="#E3182C" transform="translate(0,0)"/>
<path d="" fill="#E3152C" transform="translate(0,0)"/>
<path d="" fill="#E3162C" transform="translate(0,0)"/>
<path d="" fill="#E2172C" transform="translate(0,0)"/>
<path d="" fill="#E0152D" transform="translate(0,0)"/>
<path d="" fill="#E3172F" transform="translate(0,0)"/>
<path d="" fill="#E2162B" transform="translate(0,0)"/>
<path d="" fill="#E4172E" transform="translate(0,0)"/>
</svg>
